<svg width="40" height="40" viewBox="0 0 40 40" fill="none" xmlns="http://www.w3.org/2000/svg">
<g clip-path="url(#clip0_789_2)">
<path d="M19.9994 0C31.0454 0 39.9994 8.954 39.9994 20V34C39.9994 35.5913 39.3673 37.1174 38.2421 38.2426C37.1169 39.3679 35.5907 40 33.9994 40H20.9994V31.226C20.9994 29.224 21.1214 27.15 22.1714 25.446C22.9232 24.2248 23.9288 23.1796 25.12 22.3813C26.3112 21.5829 27.6602 21.0501 29.0754 20.819L29.4584 20.757C29.6163 20.703 29.7534 20.601 29.8505 20.4653C29.9475 20.3296 29.9997 20.1669 29.9997 20C29.9997 19.8331 29.9475 19.6704 29.8505 19.5347C29.7534 19.399 29.6163 19.297 29.4584 19.243L29.0754 19.181C27.0076 18.8432 25.0981 17.8644 23.6166 16.3829C22.135 14.9013 21.1562 12.9918 20.8184 10.924L20.7564 10.541C20.7025 10.3831 20.6005 10.246 20.4647 10.149C20.329 10.0519 20.1663 9.99975 19.9994 9.99975C19.8326 9.99975 19.6699 10.0519 19.5341 10.149C19.3984 10.246 19.2964 10.3831 19.2424 10.541L19.1804 10.924C18.9494 12.3393 18.4166 13.6883 17.6182 14.8795C16.8199 16.0707 15.7746 17.0763 14.5534 17.828C12.8494 18.878 10.7754 19 8.77344 19H0.0234375C0.546438 8.419 9.28944 0 19.9994 0Z" fill="#F06225"/>
<path d="M0 21H8.774C10.776 21 12.85 21.122 14.554 22.172C15.886 22.9928 17.0072 24.114 17.828 25.446C18.878 27.15 19 29.224 19 31.226V40H6C4.4087 40 2.88258 39.3679 1.75736 38.2426C0.632141 37.1174 0 35.5913 0 34L0 21ZM40 2C40 2.53043 39.7893 3.03914 39.4142 3.41421C39.0391 3.78929 38.5304 4 38 4C37.4696 4 36.9609 3.78929 36.5858 3.41421C36.2107 3.03914 36 2.53043 36 2C36 1.46957 36.2107 0.960859 36.5858 0.585786C36.9609 0.210714 37.4696 0 38 0C38.5304 0 39.0391 0.210714 39.4142 0.585786C39.7893 0.960859 40 1.46957 40 2Z" fill="#F06225"/>
</g>
<defs>
<clipPath id="clip0_789_2">
<rect width="40" height="40" fill="white"/>
</clipPath>
</defs>
</svg>
